<svg xmlns="http://www.w3.org/2000/svg" viewBox="0 0 1000 700"><defs><linearGradient id="bg" x2="0" y2="1"><stop stop-color="#dfebe3"/><stop offset="1" stop-color="#f2f1dd"/></linearGradient><linearGradient id="m" x2="0" y2="1"><stop stop-color="#66867c"/><stop offset="1" stop-color="#b8c9b2"/></linearGradient></defs><path fill="url(#bg)" d="M0 0h1000v700H0z"/><circle cx="724" cy="170" r="68" fill="#f9f2ce"/><path d="M0 415L105 290 162 330 283 133 326 176 406 344 517 231 675 438 772 298 1000 471V700H0" fill="#adc6b9"/><path d="M0 440L193 248 269 369 321 322 439 487 548 322 605 250 667 363 706 340 863 502 1000 420V700H0" fill="url(#m)"/><path d="M0 531Q160 467 359 553T710 519T1000 526V700H0" fill="#e0e6d4"/><path d="M0 610Q272 548 489 596T1000 581" fill="none" stroke="#b5c9bb" stroke-width="4"/><path d="M530 542q105-12 230 0m-473 88q175-15 364 0m-446 30q83-8 204 0" stroke="#a8bfb1" stroke-width="2" fill="none"/><path d="M0 644Q151 553 287 649L359 700H0" fill="#355d50"/><path d="M114 637l12-177m-7 82l-53-41m58 6l40-49" stroke="#3d5a44" stroke-width="9"/><g fill="#4d7154"><ellipse cx="74" cy="480" rx="64" ry="25"/><ellipse cx="141" cy="453" rx="62" ry="22"/><ellipse cx="164" cy="488" rx="56" ry="24"/></g><path d="M664 604q30 14 68-1l-9 14h-49z" fill="#5b5942"/><path d="M700 603v-39l28 35z" fill="#f2e5bf"/><g stroke="#5c7063" fill="none" stroke-width="2"><path d="M479 158q9-8 18 0 9-8 18 0m45 22q7-7 14 0 7-7 14 0"/></g></svg>
